<?xml version="1.0" encoding="UTF-8" standalone="no"?>
<!-- Generator: Adobe Illustrator 24.1.1, SVG Export Plug-In . SVG Version: 6.00 Build 0)  -->

<svg
   version="1.1"
   x="0px"
   y="0px"
   viewBox="0 0 94.043075 120.9"
   xml:space="preserve"
   id="svg120"
   sodipodi:docname="PCB_Michi_Act.svg"
   width="94.043076mm"
   height="120.9mm"
   inkscape:version="1.2 (1:1.2+202206011327+fc4e4096c5)"
   xmlns:inkscape="http://www.inkscape.org/namespaces/inkscape"
   xmlns:sodipodi="http://sodipodi.sourceforge.net/DTD/sodipodi-0.dtd"
   xmlns="http://www.w3.org/2000/svg"
   xmlns:svg="http://www.w3.org/2000/svg"><defs
   id="defs124" /><sodipodi:namedview
   id="namedview122"
   pagecolor="#ffffff"
   bordercolor="#666666"
   borderopacity="1.0"
   inkscape:showpageshadow="2"
   inkscape:pageopacity="0.0"
   inkscape:pagecheckerboard="0"
   inkscape:deskcolor="#d1d1d1"
   showgrid="false"
   inkscape:zoom="0.72880595"
   inkscape:cx="178.37395"
   inkscape:cy="236.00246"
   inkscape:window-width="2560"
   inkscape:window-height="1535"
   inkscape:window-x="0"
   inkscape:window-y="0"
   inkscape:window-maximized="1"
   inkscape:current-layer="g357"
   inkscape:document-units="mm" />
<style
   type="text/css"
   id="style2">
	.st0{fill:none;stroke:#000000;stroke-miterlimit:10;}
	.st1{fill:#D1D2D5;}
	.st2{fill:#999999;}
	.st3{fill-rule:evenodd;clip-rule:evenodd;fill:#999999;}
</style>

<g
   id="Frente"
   transform="matrix(0.4997933,0,0,0.4997933,-24.595364,-10.595618)">
</g>
<g
   inkscape:label="[fixed] BG"
   inkscape:groupmode="layer"
   sodipodi:insensitive="true"
   id="g357"
   style="display:none"
   transform="translate(-49.211071,-21.2)"><rect
     x="0"
     y="0"
     width="188"
     height="241"
     style="fill:#ffffff;fill-opacity:1;stroke:none"
     id="rect355" /><g
     id="Capa_2"
     transform="matrix(0.49979331,0,0,0.49979331,24.615685,10.604382)"
     style="display:inline">
	<path
   class="st0"
   d="M 236.8,86.1 C 236.3,78.7 234,72.1 230,67 l -2.9,-8.7 c -1.6,-4.9 -6.2,-8.2 -11.3,-8.2 -4,0 -7.8,2 -10,5.4 l -0.8,1.2 c -1.8,0.2 -3.6,0.6 -5.4,1.2 -0.9,-3.8 -2.3,-7.4 -4.1,-10.8 -2.6,-4.8 -6.1,-8.9 -10.2,-12 l -4.4,-7.5 c -2.1,-3.6 -6.1,-5.9 -10.3,-5.9 -4.3,0 -8.2,2.3 -10.4,6 l -0.8,1.4 C 151,30.9 143.5,36 138,43.4 131.9,38 124.3,34.6 116.4,34.1 l -1.3,-1.9 c -2.2,-3.4 -5.9,-5.4 -10,-5.4 -5.8,0 -10.8,4.1 -11.8,9.9 l -1,5.9 c -4.4,4 -7.8,9 -9.8,14.9 -1.8,5.1 -2.5,10.7 -2.2,16.2 -0.8,0.1 -1.6,0.1 -2.4,0.3 -0.3,0 -0.5,0.1 -0.8,0.2 l -0.3,-0.4 c -2.3,-2.7 -5.6,-4.3 -9.1,-4.3 -6.4,0 -11.6,5 -11.9,11.3 l -0.5,8.9 c -0.2,0.4 -0.5,0.7 -0.7,1.1 -4.1,7.4 -5.7,16.3 -4.5,25.1 0.1,0.7 0.2,1.3 0.3,2 l 0.2,1 v 0.1 c 0.6,2.9 1.6,5.7 3,8.5 l 2.9,5.7 20.3,49.3 0.2,0.4 c 5.8,11.4 8.9,24.2 8.9,36.9 v 14 c 0,13.7 10.3,25.2 23.9,26.7 12.6,1.4 26.1,2.1 39,2.1 10.7,0 20.8,-0.5 30,-1.5 13.6,-1.4 23.9,-12.9 24.1,-26.5 0.1,-7.1 0.3,-14.3 0.8,-21.3 v -0.7 c 0.5,-7.5 2.1,-15 4.7,-22.1 l 0.2,-0.5 0.1,-0.3 c 5.9,-19.6 24.7,-82.2 26.6,-88.9 l 0.1,-0.2 0.1,-0.3 c 0.7,-2.9 1.1,-5.8 1.3,-8.6 0.1,-1.8 0.1,-3.7 0,-5.6 z"
   id="path4" />
	
	
	
	
	
	
	
	
	
	
	
	
	
	
	
	
</g></g><g
   inkscape:label="Edge.Cuts"
   inkscape:groupmode="layer"
   id="g359"
   transform="translate(-49.2111, -21.2)"
   style="display:inline" /><g
   inkscape:label="B.Cu"
   inkscape:groupmode="layer"
   id="g361"
   transform="translate(-49.211071,-21.2)" /><g
   inkscape:label="B.Mask"
   inkscape:groupmode="layer"
   id="g363"
   transform="translate(-49.211071,-21.2)"
   style="display:inline"><path
     class="st1"
     d="m 120.52604,122.65804 c -0.05,1.14953 -0.05,2.29905 -0.1,3.44857 0,0.4998 -0.05,1.04957 -0.05,1.54936 v 0.05 c -0.05,3.99835 -3.04874,7.29699 -6.9971,7.69682 -9.79595,1.04957 -21.940929,0.89963 -33.286237,-0.34986 -3.948367,-0.44981 -6.947127,-3.74845 -6.947127,-7.74679 v -4.69806 h 47.380404 z"
     id="path572"
     style="stroke-width:0.499793" /></g><g
   inkscape:label="B.SilkS"
   inkscape:groupmode="layer"
   id="g365"
   transform="translate(-49.211071,-21.2)"
   style="display:inline"><path
     class="st1"
     d="m 105.73216,84.823687 c -2.09913,0 -3.94837,-0.749689 -5.69764,-1.499379 -1.549363,-0.649732 -2.998764,-1.249484 -4.398185,-1.249484 -1.249483,0 -2.349028,0.499794 -3.548532,1.149525 -1.399422,0.699711 -2.99876,1.4494 -4.947954,1.4494 -2.199091,0 -4.298222,-0.999586 -6.447334,-2.998759 -2.149111,-1.999174 -2.399007,-5.547706 -0.74969,-9.69599 1.249484,-3.198678 3.498554,-6.397355 6.097479,-8.796363 3.248656,-2.94878 6.797189,-4.498139 10.345721,-4.498139 7.147045,0 14.144155,7.296982 16.543155,14.044192 1.54936,4.348201 0.94961,7.996692 -1.59934,10.045845 -1.74927,1.349442 -3.59851,2.049152 -5.59768,2.049152 z"
     id="path40"
     style="stroke-width:0.499793" /><path
     class="st1"
     d="m 135.12001,46.53952 c -0.54978,-0.599752 -1.19951,-1.149524 -1.89922,-1.549359 -0.39983,-0.249896 -0.84965,-0.449814 -1.24948,-0.649731 -0.69971,-0.249897 -1.39942,-0.449814 -2.14911,-0.499793 l 1.79925,-2.748864 c 0.44982,-0.649731 1.4494,-0.549772 1.6993,0.199918 z"
     id="path110"
     style="stroke-width:0.499793" /><path
     class="st1"
     d="m 113.47896,31.595701 c -1.34945,-0.849649 -2.79885,-1.449401 -4.34821,-1.649318 -0.54977,-0.09996 -1.09954,-0.09996 -1.59933,-0.09996 -0.05,0 -0.05,0 -0.1,0 l 1.64931,-2.898801 c 0.34986,-0.649731 1.29947,-0.649731 1.64932,0 z"
     id="path116"
     style="stroke-width:0.499793" /><path
     class="st1"
     d="m 80.142743,32.745225 c -0.149938,0 -0.299876,0.04998 -0.449814,0.04998 -0.549773,0.09996 -1.049566,0.249896 -1.549359,0.399834 -0.999587,0.349856 -1.899215,0.79967 -2.798843,1.399422 l 0.849649,-4.798016 c 0.149938,-0.849649 1.249483,-1.099545 1.749276,-0.349856 z"
     id="path114"
     style="stroke-width:0.499793" /><path
     class="st1"
     d="m 61.500453,53.386689 c -1.649318,0.799669 -3.098719,1.999173 -4.298223,3.598511 l 0.299876,-5.747622 c 0.04998,-0.849649 1.149525,-1.249484 1.699297,-0.549773 z"
     id="path112"
     style="stroke-width:0.499793" /><path
     class="st1"
     d="m 138.01881,53.986441 c -0.19992,-2.99876 -1.19951,-5.647665 -2.8988,-7.446921 -0.59976,-0.649731 -1.24949,-1.149524 -1.89922,-1.549359 -0.39983,-0.249896 -0.79967,-0.449814 -1.29946,-0.649731 -0.64973,-0.249897 -1.39942,-0.449814 -2.14911,-0.499793 -3.19868,-0.349856 -6.69723,1.099545 -9.69599,3.948367 -0.14994,0.09996 -0.2499,0.249896 -0.34986,0.349855 0,-0.09996 0.05,-0.199917 0.05,-0.299876 l 0.05,-0.449814 c 0.49979,-3.848408 -0.19992,-7.696817 -1.89921,-10.845515 -1.14953,-2.049152 -2.69889,-3.798429 -4.49814,-4.947953 -1.34945,-0.899628 -2.84883,-1.449401 -4.39818,-1.699298 -0.54978,-0.09996 -1.09955,-0.09996 -1.64932,-0.09996 h -0.05 c -5.74762,0.04998 -10.945475,4.748036 -12.644772,11.495246 -0.04998,0.249896 -0.09996,0.499793 -0.149938,0.74969 -0.09996,-0.199918 -0.199917,-0.449814 -0.299876,-0.649732 l -0.04998,-0.04998 c -2.748864,-5.847582 -8.546466,-9.396114 -14.094172,-8.596445 -0.09996,0 -0.249896,0.04998 -0.399834,0.04998 -0.549773,0.09996 -1.049566,0.249896 -1.549359,0.399834 -0.949608,0.299876 -1.899215,0.79967 -2.798843,1.399422 -2.199091,1.499379 -3.848408,3.748449 -4.798016,6.447333 -1.149524,3.248657 -1.149524,6.947127 0,10.44568 0.199918,0.599752 0.449814,1.199504 0.649732,1.749277 -0.249897,0.09996 -0.549773,0.149938 -0.74969,0.249896 h -0.09996 c -1.449401,-0.69971 -2.948781,-1.099545 -4.548119,-1.099545 -0.549773,0 -1.049566,0.04998 -1.449401,0.09996 -0.999586,0.149938 -1.949194,0.449814 -2.898801,0.899628 -1.649318,0.799669 -3.148698,2.049152 -4.298222,3.648491 -0.299876,0.449814 -0.599752,0.899628 -0.899628,1.399421 -1.549359,2.798843 -2.149111,6.197437 -1.699297,9.546052 0.04998,0.299876 0.04998,0.499793 0.09996,0.74969 0.199918,1.149525 0.599752,2.24907 1.149525,3.398595 l 1.549359,2.998759 10.145804,24.63981 c 2.24907,4.448165 3.798429,9.296155 4.49814,14.244115 0.249897,1.74927 0.399835,3.49855 0.449814,5.24783 0,0.14993 0,0.34985 0,0.49979 0,0.2499 0,0.44981 0,0.64973 v 2.29905 4.69806 c 0,4.3482 3.248656,7.99669 7.546879,8.4465 6.247416,0.69971 12.69475,1.04957 18.892187,1.04957 5.097888,0 10.045848,-0.2499 14.494008,-0.69971 4.29822,-0.44981 7.54688,-4.04833 7.59686,-8.39653 v -0.05 c 0,-0.49979 0,-1.04956 0.05,-1.54936 0,-1.14952 0.05,-2.29905 0.1,-3.44857 0.05,-1.94919 0.14994,-3.89839 0.29988,-5.84758 v -0.14994 c 0.29988,-4.29822 1.1995,-8.59645 2.69888,-12.69475 0,-0.05 0.1,-0.2499 0.19992,-0.64973 l 0.2499,-0.79967 c 0.14994,-0.39984 0.24989,-0.84965 0.39983,-1.24948 0.14994,-0.39984 0.2499,-0.84965 0.34986,-1.24949 0.05,-0.199917 0.1,-0.399834 0.14994,-0.549772 0.05,-0.199917 0.0999,-0.349855 0.14993,-0.549773 0,0 0,0 0,0 7.39694,-24.58983 11.54523,-38.484084 11.74515,-39.283753 0.29987,-1.149525 0.44981,-2.349029 0.54977,-3.448574 0.05,-0.399835 0.05,-0.799669 0.05,-1.099545 0.05,-0.399835 0.05,-0.79967 0.05,-1.199504 z m -0.69971,2.149111 v 0 c -0.05,1.099545 -0.2499,2.19909 -0.4998,3.348615 -0.19991,0.799669 -4.64807,15.64353 -12.19495,40.783133 -0.19992,0.69971 -0.39984,1.34944 -0.59976,2.04915 l -0.24989,0.79967 c -0.1,0.39984 -0.19992,0.59975 -0.19992,0.64973 -1.54936,4.14829 -2.44899,8.49649 -2.74886,12.89467 v 0.14994 c -0.14994,1.94919 -0.2499,3.89839 -0.29988,5.89756 -0.05,1.14952 -0.05,2.29905 -0.1,3.44857 0,0.4998 -0.05,1.04957 -0.05,1.54936 v 0.05 c -0.05,3.99835 -3.04874,7.29698 -6.9971,7.69682 -9.79595,1.04957 -21.940929,0.89963 -33.286237,-0.34986 -3.948367,-0.44981 -6.947127,-3.74845 -6.947127,-7.74679 v -4.69806 -2.29905 c 0,-1.64932 -0.09996,-3.29863 -0.299876,-4.99793 -0.599751,-5.54771 -2.19909,-10.99545 -4.748036,-15.993387 L 57.95192,74.727863 56.402561,71.679124 c -0.549773,-1.049566 -0.899628,-2.149112 -1.099545,-3.198678 -0.04998,-0.199917 -0.04998,-0.449814 -0.09996,-0.69971 -0.399835,-3.248657 0.149938,-6.447334 1.599338,-9.146218 0.249897,-0.449814 0.549773,-0.899628 0.849649,-1.299462 1.099545,-1.49938 2.498967,-2.698884 4.048326,-3.398595 0.849648,-0.399834 1.749276,-0.69971 2.698884,-0.849648 0.399834,-0.04998 0.849648,-0.09996 1.349442,-0.09996 1.49938,0 2.94878,0.349855 4.298222,1.049566 l 0.249897,0.09996 0.299876,-0.09996 c 0.249896,-0.09996 0.549772,-0.199917 0.849648,-0.249897 l 0.699711,-0.149938 -0.299876,-0.69971 c -0.249897,-0.549773 -0.499793,-1.149525 -0.699711,-1.749277 -1.099545,-3.348615 -1.099545,-6.897147 0,-9.995866 0.899628,-2.548946 2.448987,-4.648078 4.548119,-6.097478 0.849649,-0.549773 1.699298,-0.999587 2.648905,-1.299463 0.449814,-0.149938 0.949607,-0.299876 1.4494,-0.399834 0.149938,0 0.299876,-0.04998 0.449814,-0.04998 5.24783,-0.74969 10.695577,2.598925 13.294502,8.096652 l 0.04998,0.09996 c 0.149938,0.299876 0.249896,0.599752 0.399834,0.899628 v 0.04998 c 0.09996,0.249896 0.349856,0.399834 0.599752,0.399834 0.249897,0 0.449814,-0.199917 0.549773,-0.499793 v -0.04998 c 0.04998,-0.349856 0.149938,-0.649732 0.199917,-0.949608 1.649318,-6.397354 6.547292,-10.895494 11.995042,-10.945473 h 0.05 c 0.49979,0 0.99958,0.04998 1.54936,0.09996 1.4494,0.249896 2.84882,0.74969 4.0983,1.599338 1.6993,1.099546 3.19868,2.748864 4.24825,4.698057 1.64931,3.04874 2.29904,6.74721 1.79925,10.44568 l -0.05,0.399835 c -0.05,0.199917 -0.05,0.349855 -0.1,0.549773 v 0.04998 c -0.05,0.249897 0.05,0.549773 0.29988,0.649731 0.2499,0.09996 0.49979,0.04998 0.69971,-0.149938 l 0.05,-0.04998 c 0.14994,-0.199917 0.34985,-0.349855 0.49979,-0.499793 2.79884,-2.698884 6.14746,-4.098305 9.14622,-3.798429 0.69971,0.09996 1.34944,0.249896 1.94919,0.449814 0.44982,0.199917 0.84965,0.399834 1.19951,0.599752 0.59975,0.349855 1.1995,0.849648 1.74927,1.4494 1.54936,1.699297 2.49897,4.198264 2.69889,7.047086 0.05,0.399834 0.05,0.799669 0.05,1.049566 0.05,0.299876 0.05,0.69971 0.05,1.099545 z"
     id="path6"
     style="display:inline;stroke-width:0.499793" /></g><g
   inkscape:label="F.Cu"
   inkscape:groupmode="layer"
   id="g367"
   transform="translate(-49.211071,-21.2)"
   style="display:none" /><g
   inkscape:label="F.Mask"
   inkscape:groupmode="layer"
   id="g369"
   transform="translate(-49.211071,-21.2)"
   style="display:inline"><path
     class="st1"
     d="m 120.52604,122.65804 c -0.05,1.14953 -0.05,2.29905 -0.1,3.44857 0,0.4998 -0.05,1.04957 -0.05,1.54936 v 0.05 c -0.05,3.99835 -3.04874,7.29699 -6.9971,7.69682 -9.79595,1.04957 -21.940929,0.89963 -33.286237,-0.34986 -3.948367,-0.44981 -6.947127,-3.74845 -6.947127,-7.74679 v -4.69806 h 47.380404 z"
     id="path8"
     style="stroke-width:0.499793" /></g><g
   inkscape:label="F.SilkS"
   inkscape:groupmode="layer"
   id="g371"
   transform="translate(-49.211071,-21.2)"
   style="display:inline"><path
     class="st2"
     d="m 124.62435,100.2673 c -0.19992,0.69971 -0.39984,1.34944 -0.59976,2.04915 l -0.24989,0.79967 c -0.1,0.39984 -0.19992,0.59975 -0.19992,0.64973 -1.54936,4.14829 -2.44899,8.49649 -2.74886,12.89467 v 0.14994 c -0.14994,1.94919 -0.2499,3.89839 -0.29988,5.89756 H 73.195616 v -2.29905 c 0,-1.64932 -0.09996,-3.29864 -0.299876,-4.99793 1.699297,-3.84841 2.798842,-6.44734 4.548119,-10.29574 3.448574,3.04873 0.549773,9.59603 5.897561,11.94506 1.699297,-3.89839 2.848822,-6.5473 4.598098,-10.44568 1.49938,3.79842 1.149525,8.29656 2.648905,12.09499 4.398181,-2.74886 5.347788,-8.59644 5.747623,-13.09458 1.49938,3.79843 0.349855,6.39735 1.899214,10.19578 4.94795,-4.04832 4.5981,-10.44568 5.54771,-16.293259 2.84882,4.348199 3.24865,10.795539 6.09747,15.143739 3.44858,-7.84676 5.54771,-16.293264 11.64519,-22.940515 -2.04915,4.648078 0.1,11.095415 -1.89922,15.743485 0,-0.05 3.1487,-4.94795 4.99794,-7.19702 z"
     id="path10"
     style="stroke-width:0.499793" /><g
     id="g98"
     transform="matrix(0.4997933,0,0,0.4997933,24.615707,10.604382)">
		<g
   id="g92">
			<path
   class="st3"
   d="m 168.6,86.3 c -0.3,-0.2 0,-0.3 0,-0.5 0,-0.5 -0.3,-1.2 -0.1,-1.7 -0.1,-0.4 0,-0.7 0,-1.2 0,-0.2 -0.1,-0.4 -0.1,-0.6 0,-0.9 0,-1.7 0.1,-2.6 0,-0.1 0,-0.2 0,-0.3 0,-0.2 0,-0.5 0.1,-0.7 0.1,-0.2 0.6,-0.3 1.1,-0.3 0.6,0.2 0.4,0.6 0.4,1 0,0.7 -0.1,1.5 -0.2,2.2 -0.1,0.5 -0.1,1 -0.2,1.4 -0.1,0.5 -0.2,0.9 -0.3,1.4 -0.1,0.3 -0.3,0.6 -0.4,0.9 -0.1,0.4 -0.2,0.7 -0.4,1 z"
   id="path90" />
		</g>
		<g
   id="g96">
			<path
   class="st3"
   d="m 163.5,88.5 c -0.2,-0.2 0,-0.3 0,-0.4 0.1,-0.4 -0.2,-1 0.1,-1.4 -0.1,-0.4 0,-0.6 0,-1 0,-0.2 -0.1,-0.4 -0.1,-0.5 -0.1,-0.7 -0.1,-1.4 -0.2,-2.1 0,-0.1 0,-0.1 0,-0.2 0,-0.2 -0.1,-0.4 0,-0.6 0,-0.2 0.5,-0.4 1,-0.5 0.6,0.1 0.6,0.4 0.7,0.8 0.1,0.6 0.2,1.4 0.1,2 0,0.4 0,0.9 -0.1,1.3 -0.1,0.4 -0.2,0.8 -0.3,1.2 -0.1,0.3 -0.4,0.5 -0.5,0.8 -0.2,0.1 -0.4,0.3 -0.7,0.6 z"
   id="path94" />
		</g>
	</g><g
     id="g108"
     transform="matrix(0.4997933,0,0,0.4997933,24.615707,10.604382)">
		<g
   id="g102">
			<path
   class="st3"
   d="m 201.8,102 c -0.1,-0.3 0.2,-0.3 0.3,-0.4 0.4,-0.3 0.5,-1 0.9,-1.3 0.1,-0.4 0.4,-0.6 0.6,-0.9 0.1,-0.2 0.1,-0.4 0.2,-0.6 0.3,-0.7 0.6,-1.4 0.8,-2.1 0,-0.1 0,-0.2 0.1,-0.2 0.1,-0.2 0.1,-0.4 0.2,-0.6 0.1,-0.2 0.6,-0.2 1.2,-0.1 0.5,0.3 0.4,0.7 0.3,1.1 -0.1,0.7 -0.5,1.5 -0.8,2.1 -0.2,0.4 -0.5,0.9 -0.8,1.2 -0.3,0.4 -0.6,0.7 -1,1 -0.3,0.2 -0.6,0.3 -0.9,0.4 -0.4,0.2 -0.8,0.3 -1.1,0.4 z"
   id="path100" />
		</g>
		<g
   id="g106">
			<path
   class="st3"
   d="m 196.1,102 c -0.2,-0.3 0.1,-0.3 0.2,-0.5 0.3,-0.4 0.3,-1.2 0.7,-1.5 0.1,-0.4 0.3,-0.6 0.6,-1.1 0.1,-0.2 0.1,-0.4 0.2,-0.6 0.4,-0.8 0.8,-1.5 1.3,-2.2 0,-0.1 0.1,-0.2 0.2,-0.2 0.1,-0.2 0.2,-0.4 0.4,-0.6 0.2,-0.1 0.7,0 1.1,0.3 0.4,0.5 0.1,0.8 -0.1,1.1 -0.3,0.6 -0.8,1.3 -1.2,1.8 -0.3,0.4 -0.5,0.8 -0.9,1.2 -0.3,0.4 -0.6,0.7 -0.9,1.1 -0.2,0.2 -0.6,0.4 -0.8,0.6 -0.2,0.2 -0.5,0.4 -0.8,0.6 z"
   id="path104" />
		</g>
	</g><g
     id="g88"
     transform="matrix(0.4997933,0,0,0.4997933,24.615707,10.604382)">
		<g
   id="g82">
			<path
   class="st3"
   d="m 124.9,90.4 c -0.3,-0.2 0,-0.3 0,-0.5 0,-0.5 -0.4,-1.1 -0.2,-1.5 -0.2,-0.3 -0.1,-0.6 -0.3,-1.1 0,-0.2 -0.2,-0.3 -0.3,-0.5 -0.3,-0.7 -0.6,-1.4 -0.9,-2 0,-0.1 -0.1,-0.1 -0.1,-0.2 -0.1,-0.2 -0.3,-0.4 -0.3,-0.6 0,-0.2 0.3,-0.6 0.7,-0.9 0.6,-0.2 0.7,0.2 1,0.5 0.4,0.5 0.7,1.4 0.9,2 0.1,0.5 0.3,1 0.3,1.4 0,0.5 0.1,1 0,1.4 -0.1,0.3 -0.2,0.7 -0.3,1 -0.2,0.4 -0.3,0.7 -0.5,1 z"
   id="path80" />
		</g>
		<g
   id="g86">
			<path
   class="st3"
   d="m 120.8,94.4 c -0.3,-0.1 -0.1,-0.3 -0.2,-0.5 -0.1,-0.5 -0.6,-1 -0.6,-1.6 -0.3,-0.4 -0.2,-0.7 -0.4,-1.2 -0.1,-0.2 -0.2,-0.4 -0.3,-0.6 -0.3,-0.8 -0.5,-1.6 -0.7,-2.5 0,-0.1 0,-0.2 0,-0.3 0,-0.2 -0.1,-0.5 -0.1,-0.7 0,-0.2 0.5,-0.5 1,-0.6 0.6,0.1 0.6,0.5 0.7,0.9 0.2,0.6 0.3,1.5 0.4,2.1 0.1,0.5 0.2,1 0.2,1.4 0,0.5 0.1,0.9 0.1,1.4 0,0.3 -0.1,0.7 -0.2,1 0.3,0.5 0.2,0.8 0.1,1.2 z"
   id="path84" />
		</g>
	</g><g
     id="g78"
     transform="matrix(0.4997933,0,0,0.4997933,24.615707,10.604382)">
		<g
   id="g72">
			<path
   class="st3"
   d="m 84.8,118.8 c -0.2,0 -0.1,-0.2 -0.2,-0.3 -0.1,-0.3 -0.5,-0.7 -0.6,-1.1 -0.2,-0.2 -0.2,-0.5 -0.4,-0.8 -0.1,-0.1 -0.2,-0.3 -0.3,-0.4 -0.3,-0.6 -0.5,-1.2 -0.7,-1.8 0,-0.1 0,-0.1 -0.1,-0.2 0,-0.2 -0.2,-0.3 -0.2,-0.5 0,-0.2 0.3,-0.4 0.7,-0.5 0.5,0 0.5,0.3 0.6,0.6 0.2,0.4 0.4,1.1 0.5,1.5 0.1,0.3 0.2,0.7 0.3,1 0.1,0.3 0.2,0.7 0.2,1 0,0.2 0,0.5 0,0.8 0.2,0.2 0.2,0.5 0.2,0.7 z"
   id="path70" />
		</g>
		<g
   id="g76">
			<path
   class="st3"
   d="m 82,121.8 c -0.2,-0.1 -0.1,-0.2 -0.1,-0.3 -0.1,-0.3 -0.4,-0.6 -0.4,-1 -0.2,-0.2 -0.2,-0.4 -0.3,-0.7 -0.1,-0.1 -0.2,-0.2 -0.3,-0.3 -0.3,-0.5 -0.5,-0.9 -0.8,-1.3 0,0 -0.1,-0.1 -0.1,-0.1 -0.1,-0.1 -0.2,-0.2 -0.2,-0.4 0,-0.1 0.2,-0.4 0.5,-0.7 0.4,-0.1 0.5,0.1 0.7,0.3 0.3,0.3 0.5,0.9 0.7,1.3 0.1,0.3 0.3,0.6 0.3,0.9 0.1,0.3 0.1,0.6 0.2,0.9 0,0.2 -0.1,0.5 -0.1,0.7 0.1,0.3 0,0.5 -0.1,0.7 z"
   id="path74" />
		</g>
	</g><g
     id="g38"
     transform="matrix(0.4997933,0,0,0.4997933,24.615707,10.604382)">
		<g
   id="g28">
			<path
   class="st3"
   d="m 113.5,175.7 c -0.5,-0.1 -0.7,-0.6 -1,-1 -1,-1.1 -2.3,-2.2 -3.1,-3.5 -0.8,-0.8 -1.3,-1.6 -2.1,-2.7 -0.4,-0.5 -0.8,-0.9 -1.1,-1.4 -1.4,-2 -2.6,-4.1 -3.8,-6.3 -0.1,-0.2 -0.2,-0.5 -0.4,-0.7 -0.3,-0.6 -0.7,-1.3 -0.9,-1.9 -0.2,-0.7 0,-1.3 0.5,-1.6 0.7,0.2 1.1,1.3 1.6,2.2 0.8,1.6 2,3.8 2.9,5.4 0.7,1.2 1.4,2.3 2.1,3.4 0.7,1.1 1.5,2.2 2.2,3.3 0.5,0.8 0.9,1.6 1.4,2.4 0.6,0.8 1.2,1.6 1.7,2.4 z"
   id="path26" />
		</g>
		<g
   id="g32">
			<path
   class="st3"
   d="m 118.2,174.2 c -0.4,-0.1 -0.3,-0.4 -0.5,-0.6 -0.5,-0.7 -1.3,-1.3 -1.6,-2.2 -0.5,-0.4 -0.7,-1 -1.2,-1.6 -0.2,-0.3 -0.5,-0.5 -0.7,-0.8 -0.8,-1.2 -1.6,-2.3 -2.4,-3.5 -0.1,-0.1 -0.2,-0.3 -0.2,-0.4 -0.2,-0.3 -0.5,-0.7 -0.6,-1 -0.1,-0.4 0.1,-0.9 0.6,-1.2 0.7,-0.1 0.9,0.5 1.3,1 0.6,0.9 1.4,2.1 1.9,3 0.4,0.7 0.8,1.3 1.2,2 0.4,0.7 0.8,1.3 1.1,2 0.2,0.5 0.3,1 0.6,1.5 0.1,0.7 0.3,1.2 0.5,1.8 z"
   id="path30" />
		</g>
		<g
   id="g36">
			<path
   class="st3"
   d="m 127.1,180 c -0.4,-0.1 -0.4,-0.5 -0.6,-0.8 -0.6,-0.8 -1.5,-1.6 -2,-2.6 -0.6,-0.6 -0.8,-1.2 -1.3,-2 -0.2,-0.4 -0.6,-0.6 -0.8,-1 -0.9,-1.5 -1.8,-2.9 -2.6,-4.4 -0.1,-0.2 -0.2,-0.3 -0.2,-0.5 -0.2,-0.4 -0.5,-0.9 -0.6,-1.3 -0.1,-0.5 0.1,-1 0.6,-1.2 0.7,0 0.9,0.8 1.3,1.5 0.6,1.1 1.4,2.7 2,3.8 0.4,0.8 0.9,1.7 1.3,2.5 0.4,0.8 0.9,1.6 1.3,2.4 0.3,0.6 0.5,1.2 0.7,1.8 0.4,0.6 0.7,1.2 0.9,1.8 z"
   id="path34" />
		</g>
	</g><g
     id="g24"
     transform="matrix(0.4997933,0,0,0.4997933,24.615707,10.604382)">
		<g
   id="g14">
			<path
   class="st3"
   d="m 170.5,169.8 c -0.3,-0.1 -0.2,-0.5 -0.3,-0.7 -0.3,-0.8 -1,-1.6 -1.1,-2.4 -0.4,-0.5 -0.5,-1.1 -0.8,-1.8 -0.1,-0.3 -0.4,-0.6 -0.5,-0.9 -0.6,-1.3 -1,-2.5 -1.6,-3.9 -0.1,-0.1 -0.1,-0.3 -0.1,-0.4 -0.1,-0.4 -0.3,-0.8 -0.4,-1.1 -0.1,-0.4 0.3,-0.8 0.8,-1 0.7,0.1 0.8,0.7 1,1.3 0.4,1 0.9,2.4 1.2,3.3 0.2,0.7 0.5,1.5 0.7,2.2 0.2,0.8 0.5,1.5 0.6,2.2 0.1,0.5 0.1,1.1 0.2,1.6 0.2,0.5 0.3,1 0.3,1.6 z"
   id="path12" />
		</g>
		<g
   id="g18">
			<path
   class="st3"
   d="m 174,167.3 c -0.3,0 -0.2,-0.2 -0.3,-0.3 -0.2,-0.4 -0.8,-0.7 -0.8,-1.2 -0.3,-0.2 -0.3,-0.5 -0.6,-0.9 -0.1,-0.2 -0.3,-0.3 -0.4,-0.4 -0.4,-0.6 -0.8,-1.2 -1.1,-1.9 0,-0.1 -0.1,-0.1 -0.1,-0.2 -0.1,-0.2 -0.2,-0.4 -0.2,-0.6 0,-0.2 0.4,-0.5 0.9,-0.8 0.6,-0.1 0.7,0.2 0.9,0.5 0.3,0.5 0.6,1.2 0.8,1.6 0.2,0.4 0.4,0.7 0.5,1.1 0.1,0.4 0.3,0.7 0.4,1.1 0.1,0.3 0,0.6 0.1,0.9 -0.1,0.5 -0.1,0.8 -0.1,1.1 z"
   id="path16" />
		</g>
		<g
   id="g22">
			<path
   class="st3"
   d="m 178.9,165.5 c -0.3,-0.1 -0.2,-0.3 -0.2,-0.4 -0.2,-0.5 -0.7,-1 -0.7,-1.5 -0.3,-0.3 -0.3,-0.7 -0.4,-1.1 -0.1,-0.2 -0.3,-0.4 -0.3,-0.5 -0.3,-0.8 -0.6,-1.6 -0.9,-2.4 0,-0.1 0,-0.2 -0.1,-0.3 0,-0.2 -0.2,-0.5 -0.2,-0.7 0,-0.2 0.4,-0.5 1,-0.7 0.6,0 0.6,0.4 0.8,0.8 0.2,0.6 0.5,1.5 0.6,2.1 0.1,0.5 0.3,0.9 0.3,1.4 0.1,0.5 0.2,0.9 0.2,1.4 0,0.3 -0.1,0.7 -0.1,1 0.1,0.2 0.1,0.5 0,0.9 z"
   id="path20" />
		</g>
	</g><g
     id="g68"
     transform="matrix(0.4997933,0,0,0.4997933,24.615707,10.604382)">
		<g
   id="g58">
			<path
   class="st3"
   d="m 166.8,127 c -0.1,-0.3 0.2,-0.3 0.3,-0.4 0.4,-0.3 0.5,-1 0.9,-1.3 0.1,-0.4 0.4,-0.6 0.6,-0.9 0.1,-0.2 0.1,-0.4 0.2,-0.6 0.3,-0.7 0.6,-1.4 0.8,-2.1 0,-0.1 0,-0.2 0.1,-0.2 0.1,-0.2 0.1,-0.4 0.2,-0.6 0.1,-0.2 0.6,-0.2 1.2,-0.1 0.5,0.3 0.4,0.7 0.3,1.1 -0.1,0.7 -0.5,1.5 -0.8,2.1 -0.2,0.4 -0.5,0.9 -0.8,1.2 -0.3,0.4 -0.6,0.7 -1,1 -0.3,0.2 -0.6,0.3 -0.9,0.4 -0.4,0.2 -0.8,0.3 -1.1,0.4 z"
   id="path56" />
		</g>
		<g
   id="g62">
			<path
   class="st3"
   d="m 161.1,127 c -0.2,-0.3 0.1,-0.3 0.2,-0.5 0.3,-0.4 0.3,-1.2 0.7,-1.5 0.1,-0.4 0.3,-0.6 0.6,-1.1 0.1,-0.2 0.1,-0.4 0.2,-0.6 0.4,-0.8 0.8,-1.5 1.3,-2.2 0,-0.1 0.1,-0.2 0.2,-0.2 0.1,-0.2 0.2,-0.4 0.4,-0.6 0.2,-0.1 0.7,0 1.1,0.3 0.4,0.5 0.1,0.8 -0.1,1.1 -0.3,0.6 -0.8,1.3 -1.2,1.8 -0.3,0.4 -0.5,0.8 -0.9,1.2 -0.3,0.4 -0.6,0.7 -0.9,1.1 -0.2,0.2 -0.6,0.4 -0.8,0.6 -0.2,0.2 -0.5,0.4 -0.8,0.6 z"
   id="path60" />
		</g>
		<g
   id="g66">
			<path
   class="st3"
   d="m 155.6,126.4 c -0.1,-0.3 0.1,-0.3 0.2,-0.4 0.3,-0.3 0.3,-1 0.7,-1.2 0.1,-0.4 0.3,-0.5 0.5,-0.9 0.1,-0.2 0.1,-0.4 0.1,-0.5 0.3,-0.7 0.6,-1.3 0.8,-1.9 0,-0.1 0.1,-0.1 0.1,-0.2 0.1,-0.2 0.1,-0.4 0.2,-0.5 0.1,-0.1 0.6,-0.1 1.2,0.1 0.5,0.3 0.3,0.7 0.2,1 -0.1,0.6 -0.5,1.3 -0.8,1.8 -0.2,0.4 -0.4,0.8 -0.7,1.1 -0.3,0.3 -0.5,0.7 -0.9,0.9 -0.2,0.2 -0.6,0.3 -0.8,0.4 -0.2,0.1 -0.5,0.2 -0.8,0.3 z"
   id="path64" />
		</g>
	</g><g
     id="g54"
     transform="matrix(0.4997933,0,0,0.4997933,24.615707,10.604382)">
		<g
   id="g44">
			<path
   class="st3"
   d="m 128.8,141.2 c -0.4,0 -0.4,-0.3 -0.5,-0.5 -0.5,-0.6 -1.3,-1.1 -1.6,-1.9 -0.5,-0.4 -0.7,-0.9 -1.1,-1.5 -0.2,-0.3 -0.5,-0.5 -0.6,-0.7 -0.7,-1.1 -1.3,-2.2 -1.9,-3.4 -0.1,-0.1 -0.1,-0.3 -0.2,-0.4 -0.1,-0.3 -0.3,-0.7 -0.4,-1 -0.1,-0.4 0.3,-0.8 0.8,-1 0.7,0 0.8,0.6 1,1.1 0.5,1 1,2.1 1.4,2.9 0.3,0.6 0.7,1.2 1,1.9 0.3,0.6 0.7,1.2 1,1.8 0.2,0.4 0.3,0.9 0.5,1.4 0.2,0.4 0.4,0.8 0.6,1.3 z"
   id="path42" />
		</g>
		<g
   id="g48">
			<path
   class="st3"
   d="m 120.4,134.8 c -0.3,0 -0.3,-0.3 -0.4,-0.5 -0.3,-0.5 -1,-1 -1.2,-1.6 -0.4,-0.3 -0.5,-0.7 -0.8,-1.2 -0.1,-0.2 -0.4,-0.4 -0.5,-0.6 -0.6,-0.9 -1.1,-1.7 -1.6,-2.6 -0.1,-0.1 -0.1,-0.2 -0.2,-0.3 -0.1,-0.3 -0.3,-0.5 -0.4,-0.8 -0.1,-0.3 0.3,-0.7 0.7,-1 0.6,-0.1 0.8,0.4 1,0.8 0.4,0.7 0.9,1.6 1.3,2.3 0.3,0.5 0.6,1 0.8,1.5 0.2,0.5 0.5,1 0.7,1.6 0.1,0.4 0.1,0.8 0.3,1.2 0.2,0.4 0.3,0.8 0.3,1.2 z"
   id="path46" />
		</g>
		<g
   id="g52">
			<path
   class="st3"
   d="m 116.1,133 c -0.3,0.1 -0.2,-0.2 -0.3,-0.3 -0.3,-0.4 -1,-0.6 -1.1,-1.1 -0.4,-0.2 -0.5,-0.5 -0.8,-0.8 -0.1,-0.1 -0.4,-0.2 -0.5,-0.4 -0.6,-0.6 -1.1,-1.2 -1.6,-1.8 -0.1,-0.1 -0.1,-0.1 -0.2,-0.2 -0.1,-0.2 -0.3,-0.4 -0.4,-0.6 -0.1,-0.2 0.2,-0.6 0.7,-1 0.6,-0.2 0.7,0.1 1,0.4 0.4,0.4 0.9,1.1 1.2,1.6 0.3,0.4 0.6,0.7 0.8,1.1 0.2,0.4 0.5,0.7 0.7,1.1 0.1,0.3 0.2,0.6 0.3,0.9 0,0.4 0.1,0.7 0.2,1.1 z"
   id="path50" />
		</g>
	</g></g><g
   inkscape:label="Dwgs.User"
   inkscape:groupmode="layer"
   id="g373"
   transform="translate(-49.211071,-21.2)" /><g
   inkscape:label="Drill"
   inkscape:groupmode="layer"
   id="g375"
   transform="translate(-49.2111, -21.2)" /></svg>
