999
"DXF R12 Output" (www.mydxf.blogspot.com)
 0 
SECTION
 2 
HEADER
 9 
$ACADVER
 1 
AC1009
 9 
$EXTMIN
 10 
 0 
 20 
 0 
 9 
$EXTMAX
 10 
 8.5 
 20 
 11 
 0 
ENDSEC
 0 
SECTION
 2 
ENTITIES
0
LINE
8
Layer 1
10
79.755500
20
75.253600
11
79.453236
21
77.544830
0
LINE
8
Layer 1
10
79.453236
20
77.544830
11
78.867987
21
79.680612
0
LINE
8
Layer 1
10
78.867987
20
79.680612
11
78.003720
21
81.633039
0
LINE
8
Layer 1
10
78.003720
20
81.633039
11
76.864400
21
83.374200
0
LINE
8
Layer 1
10
76.864400
20
83.374200
11
75.631430
21
87.073100
0
LINE
8
Layer 1
10
75.631430
20
87.073100
11
74.898691
21
88.496725
0
LINE
8
Layer 1
10
74.898691
20
88.496725
11
73.787293
21
89.597494
0
LINE
8
Layer 1
10
73.787293
20
89.597494
11
72.396884
21
90.307645
0
LINE
8
Layer 1
10
72.396884
20
90.307645
11
70.827110
21
90.559420
0
LINE
8
Layer 1
10
70.827110
20
90.559420
11
69.576872
21
90.403970
0
LINE
8
Layer 1
10
69.576872
20
90.403970
11
68.414321
21
89.953565
0
LINE
8
Layer 1
10
68.414321
20
89.953565
11
67.395262
21
89.232120
0
LINE
8
Layer 1
10
67.395262
20
89.232120
11
66.575500
21
88.263550
0
LINE
8
Layer 1
10
66.575500
20
88.263550
11
66.235371
21
87.753357
0
LINE
8
Layer 1
10
66.235371
20
87.753357
11
63.939501
21
87.243164
0
LINE
8
Layer 1
10
63.939501
20
87.243164
11
63.211413
21
89.602807
0
LINE
8
Layer 1
10
63.211413
20
89.602807
11
62.196341
21
91.834904
0
LINE
8
Layer 1
10
62.196341
20
91.834904
11
61.297524
21
93.307687
0
LINE
8
Layer 1
10
61.297524
20
93.307687
11
60.267173
21
94.656908
0
LINE
8
Layer 1
10
60.267173
20
94.656908
11
59.117247
21
95.870609
0
LINE
8
Layer 1
10
59.117247
20
95.870609
11
57.859701
21
96.936834
0
LINE
8
Layer 1
10
57.859701
20
96.936834
11
55.988991
21
100.125544
0
LINE
8
Layer 1
10
55.988991
20
100.125544
11
55.179192
21
101.163203
0
LINE
8
Layer 1
10
55.179192
20
101.163203
11
54.134227
21
101.953737
0
LINE
8
Layer 1
10
54.134227
20
101.953737
11
52.921853
21
102.457287
0
LINE
8
Layer 1
10
52.921853
20
102.457287
11
51.609831
21
102.633994
0
LINE
8
Layer 1
10
51.609831
20
102.633994
11
50.279211
21
102.456622
0
LINE
8
Layer 1
10
50.279211
20
102.456622
11
49.064181
21
101.948421
0
LINE
8
Layer 1
10
49.064181
20
101.948421
11
48.016558
21
101.145265
0
LINE
8
Layer 1
10
48.016558
20
101.145265
11
47.188161
21
100.083024
0
LINE
8
Layer 1
10
47.188161
20
100.083024
11
46.848032
21
99.487799
0
LINE
8
Layer 1
10
46.848032
20
99.487799
11
44.248584
21
98.657404
0
LINE
8
Layer 1
10
44.248584
20
98.657404
11
41.836467
21
97.340737
0
LINE
8
Layer 1
10
41.836467
20
97.340737
11
39.655524
21
95.577652
0
LINE
8
Layer 1
10
39.655524
20
95.577652
11
37.749600
21
93.408000
0
LINE
8
Layer 1
10
37.749600
20
93.408000
11
35.692877
21
94.964498
0
LINE
8
Layer 1
10
35.692877
20
94.964498
11
33.444837
21
96.166237
0
LINE
8
Layer 1
10
33.444837
20
96.166237
11
31.053305
21
96.977358
0
LINE
8
Layer 1
10
31.053305
20
96.977358
11
28.566100
21
97.362000
0
LINE
8
Layer 1
10
28.566100
20
97.362000
11
28.013391
21
98.169806
0
LINE
8
Layer 1
10
28.013391
20
98.169806
11
27.199606
21
99.138377
0
LINE
8
Layer 1
10
27.199606
20
99.138377
11
26.190513
21
99.859822
0
LINE
8
Layer 1
10
26.190513
20
99.859822
11
25.029957
21
100.310227
0
LINE
8
Layer 1
10
25.029957
20
100.310227
11
23.761781
21
100.465676
0
LINE
8
Layer 1
10
23.761781
20
100.465676
11
22.855658
21
100.385958
0
LINE
8
Layer 1
10
22.855658
20
100.385958
11
21.997364
21
100.154777
0
LINE
8
Layer 1
10
21.997364
20
100.154777
11
21.202845
21
99.784090
0
LINE
8
Layer 1
10
21.202845
20
99.784090
11
20.488042
21
99.285855
0
LINE
8
Layer 1
10
20.488042
20
99.285855
11
19.868901
21
98.672029
0
LINE
8
Layer 1
10
19.868901
20
98.672029
11
19.361365
21
97.954571
0
LINE
8
Layer 1
10
19.361365
20
97.954571
11
18.981377
21
97.145437
0
LINE
8
Layer 1
10
18.981377
20
97.145437
11
18.744881
21
96.256586
0
LINE
8
Layer 1
10
18.744881
20
96.256586
11
18.319720
21
93.748136
0
LINE
8
Layer 1
10
18.319720
20
93.748136
11
16.999062
21
92.393601
0
LINE
8
Layer 1
10
16.999062
20
92.393601
11
15.853784
21
90.883615
0
LINE
8
Layer 1
10
15.853784
20
90.883615
11
14.899828
21
89.222164
0
LINE
8
Layer 1
10
14.899828
20
89.222164
11
14.153140
21
87.413236
0
LINE
8
Layer 1
10
14.153140
20
87.413236
11
13.666198
21
85.751123
0
LINE
8
Layer 1
10
13.666198
20
85.751123
11
13.350650
21
84.033207
0
LINE
8
Layer 1
10
13.350650
20
84.033207
11
13.202508
21
82.283403
0
LINE
8
Layer 1
10
13.202508
20
82.283403
11
13.217786
21
80.525626
0
LINE
8
Layer 1
10
13.217786
20
80.525626
11
12.197396
21
80.398078
0
LINE
8
Layer 1
10
12.197396
20
80.398078
11
11.857267
21
80.313046
0
LINE
8
Layer 1
10
11.857267
20
80.313046
11
11.729719
21
80.483110
0
LINE
8
Layer 1
10
11.729719
20
80.483110
11
10.921913
21
81.253047
0
LINE
8
Layer 1
10
10.921913
20
81.253047
11
9.986559
21
81.827679
0
LINE
8
Layer 1
10
9.986559
20
81.827679
11
8.955542
21
82.187073
0
LINE
8
Layer 1
10
8.955542
20
82.187073
11
7.860749
21
82.311300
0
LINE
8
Layer 1
10
7.860749
20
82.311300
11
6.867350
21
82.214725
0
LINE
8
Layer 1
10
6.867350
20
82.214725
11
5.940217
21
81.937292
0
LINE
8
Layer 1
10
5.940217
20
81.937292
11
5.097783
21
81.497433
0
LINE
8
Layer 1
10
5.097783
20
81.497433
11
4.358484
21
80.913585
0
LINE
8
Layer 1
10
4.358484
20
80.913585
11
3.740754
21
80.204181
0
LINE
8
Layer 1
10
3.740754
20
80.204181
11
3.263029
21
79.387655
0
LINE
8
Layer 1
10
3.263029
20
79.387655
11
2.943742
21
78.482444
0
LINE
8
Layer 1
10
2.943742
20
78.482444
11
2.801329
21
77.506980
0
LINE
8
Layer 1
10
2.801329
20
77.506980
11
2.588748
21
73.723050
0
LINE
8
Layer 1
10
2.588748
20
73.723050
11
2.291135
21
73.255373
0
LINE
8
Layer 1
10
2.291135
20
73.255373
11
1.185052
21
70.786784
0
LINE
8
Layer 1
10
1.185052
20
70.786784
11
0.489515
21
68.142819
0
LINE
8
Layer 1
10
0.489515
20
68.142819
11
0.216483
21
65.387256
0
LINE
8
Layer 1
10
0.216483
20
65.387256
11
0.377915
21
62.583873
0
LINE
8
Layer 1
10
0.377915
20
62.583873
11
0.505463
21
61.733551
0
LINE
8
Layer 1
10
0.505463
20
61.733551
11
0.590495
21
61.308390
0
LINE
8
Layer 1
10
0.590495
20
61.308390
11
0.590547
21
61.265800
0
LINE
8
Layer 1
10
0.590547
20
61.265800
11
1.100740
21
59.442920
0
LINE
8
Layer 1
10
1.100740
20
59.442920
11
1.866027
21
57.651930
0
LINE
8
Layer 1
10
1.866027
20
57.651930
11
3.098997
21
55.228510
0
LINE
8
Layer 1
10
3.098997
20
55.228510
11
11.729767
21
34.268110
0
LINE
8
Layer 1
10
11.729767
20
34.268110
11
11.814799
21
34.098046
0
LINE
8
Layer 1
10
11.814799
20
34.098046
11
13.446352
21
30.361278
0
LINE
8
Layer 1
10
13.446352
20
30.361278
11
14.631488
21
26.461093
0
LINE
8
Layer 1
10
14.631488
20
26.461093
11
15.354262
21
22.457286
0
LINE
8
Layer 1
10
15.354262
20
22.457286
11
15.598729
21
18.409646
0
LINE
8
Layer 1
10
15.598729
20
18.409646
11
15.598700
21
12.457400
0
LINE
8
Layer 1
10
15.598700
20
12.457400
11
15.798160
21
10.323454
0
LINE
8
Layer 1
10
15.798160
20
10.323454
11
16.373290
21
8.316058
0
LINE
8
Layer 1
10
16.373290
20
8.316058
11
17.289211
21
6.474076
0
LINE
8
Layer 1
10
17.289211
20
6.474076
11
18.511048
21
4.836371
0
LINE
8
Layer 1
10
18.511048
20
4.836371
11
20.003922
21
3.441808
0
LINE
8
Layer 1
10
20.003922
20
3.441808
11
21.732957
21
2.329249
0
LINE
8
Layer 1
10
21.732957
20
2.329249
11
23.663275
21
1.537558
0
LINE
8
Layer 1
10
23.663275
20
1.537558
11
25.760000
21
1.105600
0
LINE
8
Layer 1
10
25.760000
20
1.105600
11
34.002811
21
0.435972
0
LINE
8
Layer 1
10
34.002811
20
0.435972
11
42.341300
21
0.212762
0
LINE
8
Layer 1
10
42.341300
20
0.212762
11
48.957864
21
0.372197
0
LINE
8
Layer 1
10
48.957864
20
0.372197
11
55.096100
21
0.850503
0
LINE
8
Layer 1
10
55.096100
20
0.850503
11
57.193006
21
1.268357
0
LINE
8
Layer 1
10
57.193006
20
1.268357
11
59.124494
21
2.048926
0
LINE
8
Layer 1
10
59.124494
20
2.048926
11
60.856688
21
3.152354
0
LINE
8
Layer 1
10
60.856688
20
3.152354
11
62.355709
21
4.538780
0
LINE
8
Layer 1
10
62.355709
20
4.538780
11
63.587678
21
6.168347
0
LINE
8
Layer 1
10
63.587678
20
6.168347
11
64.518719
21
8.001195
0
LINE
8
Layer 1
10
64.518719
20
8.001195
11
65.114952
21
9.997467
0
LINE
8
Layer 1
10
65.114952
20
9.997467
11
65.342500
21
12.117303
0
LINE
8
Layer 1
10
65.342500
20
12.117303
11
65.448790
21
16.661209
0
LINE
8
Layer 1
10
65.448790
20
16.661209
11
65.682629
21
21.173233
0
LINE
8
Layer 1
10
65.682629
20
21.173233
11
65.682700
21
21.470800
0
LINE
8
Layer 1
10
65.682700
20
21.470800
11
65.929161
21
23.859674
0
LINE
8
Layer 1
10
65.929161
20
23.859674
11
66.347015
21
26.232603
0
LINE
8
Layer 1
10
66.347015
20
26.232603
11
66.932276
21
28.573645
0
LINE
8
Layer 1
10
66.932276
20
28.573645
11
67.680960
21
30.866860
0
LINE
8
Layer 1
10
67.680960
20
30.866860
11
67.765992
21
31.079441
0
LINE
8
Layer 1
10
67.765992
20
31.079441
11
67.808508
21
31.206989
0
LINE
8
Layer 1
10
67.808508
20
31.206989
11
79.117808
21
69.003789
0
LINE
8
Layer 1
10
79.117808
20
69.003789
11
79.160324
21
69.088821
0
LINE
8
Layer 1
10
79.160324
20
69.088821
11
79.202841
21
69.216369
0
LINE
8
Layer 1
10
79.202841
20
69.216369
11
79.558913
21
71.060504
0
LINE
8
Layer 1
10
79.558913
20
71.060504
11
79.755550
21
72.872749
0
LINE
8
Layer 1
10
79.755550
20
72.872749
11
79.755550
21
75.253649
0
LINE
8
Layer 1
10
79.755550
20
75.253649
11
79.755500
21
75.253600
 0 
ENDSEC
 0 
EOF