<?xml version="1.0" encoding="UTF-8" standalone="no"?>
<!-- Generator: Adobe Illustrator 24.1.1, SVG Export Plug-In . SVG Version: 6.00 Build 0)  -->

<svg
   version="1.1"
   x="0px"
   y="0px"
   viewBox="0 0 80 102.84649"
   xml:space="preserve"
   id="svg120"
   sodipodi:docname="PCB_Michi_Act.svg"
   width="80mm"
   height="102.84649mm"
   inkscape:version="1.2 (1:1.2.1+202207142221+cd75a1ee6d)"
   xmlns:inkscape="http://www.inkscape.org/namespaces/inkscape"
   xmlns:sodipodi="http://sodipodi.sourceforge.net/DTD/sodipodi-0.dtd"
   xmlns="http://www.w3.org/2000/svg"
   xmlns:svg="http://www.w3.org/2000/svg"><defs
   id="defs124" /><sodipodi:namedview
   id="namedview122"
   pagecolor="#ffffff"
   bordercolor="#666666"
   borderopacity="1.0"
   inkscape:showpageshadow="2"
   inkscape:pageopacity="0.0"
   inkscape:pagecheckerboard="0"
   inkscape:deskcolor="#d1d1d1"
   showgrid="false"
   inkscape:zoom="0.72880595"
   inkscape:cx="179.74606"
   inkscape:cy="236.00246"
   inkscape:window-width="2560"
   inkscape:window-height="1535"
   inkscape:window-x="0"
   inkscape:window-y="0"
   inkscape:window-maximized="1"
   inkscape:current-layer="g371"
   inkscape:document-units="mm" />
<style
   type="text/css"
   id="style2">
	.st0{fill:none;stroke:#000000;stroke-miterlimit:10;}
	.st1{fill:#D1D2D5;}
	.st2{fill:#999999;}
	.st3{fill-rule:evenodd;clip-rule:evenodd;fill:#999999;}
</style>

<g
   id="Frente"
   transform="matrix(0.4997933,0,0,0.4997933,-24.59535,-10.595618)">
</g>
<g
   inkscape:label="[fixed] BG"
   inkscape:groupmode="layer"
   id="g357"
   style="display:none"
   transform="translate(-49.211057,-21.2)"
   sodipodi:insensitive="true"><rect
     x="0"
     y="0"
     width="188"
     height="241"
     style="fill:#ffffff;fill-opacity:1;stroke:none"
     id="rect355" /></g><g
   inkscape:label="Edge.Cuts"
   inkscape:groupmode="layer"
   id="g359"
   transform="translate(-49.2111, -21.2)"
   style="display:inline" /><g
   inkscape:label="B.Cu"
   inkscape:groupmode="layer"
   id="g361"
   transform="translate(-49.211057,-21.2)" /><g
   inkscape:label="B.Mask"
   inkscape:groupmode="layer"
   id="g363"
   transform="translate(-49.211057,-21.2)"
   style="display:inline"><path
     class="st1"
     d="m 109.87685,107.50772 c -0.0426,0.97787 -0.0426,1.95574 -0.085,2.93361 0,0.42516 -0.0426,0.89284 -0.0426,1.318 v 0.0426 c -0.0426,3.4013 -2.59348,6.20737 -5.95225,6.54749 -8.333157,0.89284 -18.664573,0.76529 -28.315733,-0.29762 -3.358772,-0.38264 -5.90974,-3.1887 -5.90974,-6.58999 v -3.99652 h 40.305283 z"
     id="path572"
     style="display:inline;stroke-width:0.425162" /></g><g
   inkscape:label="B.SilkS"
   inkscape:groupmode="layer"
   id="g365"
   transform="translate(-49.211057,-21.2)"
   style="display:inline"><path
     class="st1"
     d="m 97.29209,75.323016 c -1.785677,0 -3.358775,-0.637742 -4.846835,-1.275483 -1.318003,-0.55271 -2.55097,-1.062904 -3.741422,-1.062904 -1.062903,0 -1.998256,0.425162 -3.018643,0.977872 -1.190452,0.595225 -2.550968,1.232967 -4.209097,1.232967 -1.870708,0 -3.656385,-0.850322 -5.484578,-2.550967 -1.828193,-1.700645 -2.040773,-4.719288 -0.637743,-8.248126 1.062905,-2.721032 2.97613,-5.442064 5.186968,-7.482837 2.763547,-2.50845 5.782192,-3.82645 8.800835,-3.82645 6.079805,0 12.032065,6.207353 14.072825,11.947028 1.31801,3.698902 0.80782,6.802578 -1.36051,8.54574 -1.48806,1.147935 -3.061162,1.74316 -4.7618,1.74316 z"
     id="path40"
     style="stroke-width:0.425162" /><path
     class="st1"
     d="m 122.29157,42.75567 c -0.46768,-0.510192 -1.02039,-0.97787 -1.61562,-1.317999 -0.34013,-0.21258 -0.72277,-0.382645 -1.0629,-0.552708 -0.59522,-0.212582 -1.19045,-0.382647 -1.82819,-0.425162 l 1.53058,-2.338386 c 0.38264,-0.55271 1.23297,-0.467679 1.44555,0.170065 z"
     id="path110"
     style="stroke-width:0.425162" /><path
     class="st1"
     d="m 103.88209,30.043351 c -1.14794,-0.722773 -2.38091,-1.232966 -3.69891,-1.403031 -0.467669,-0.08503 -0.935347,-0.08503 -1.360505,-0.08503 -0.04257,0 -0.04257,0 -0.08503,0 l 1.403015,-2.465933 c 0.29762,-0.55271 1.10543,-0.55271 1.40304,0 z"
     id="path116"
     style="stroke-width:0.425162" /><path
     class="st1"
     d="m 75.523837,31.021223 c -0.12755,0 -0.255095,0.04252 -0.382644,0.04252 -0.467678,0.08503 -0.892838,0.21258 -1.318,0.340128 -0.850323,0.297613 -1.615613,0.680258 -2.380903,1.190452 l 0.722775,-4.081549 c 0.12755,-0.722773 1.062902,-0.935353 1.488063,-0.297611 z"
     id="path114"
     style="stroke-width:0.425162" /><path
     class="st1"
     d="m 59.665327,48.58038 c -1.403034,0.680256 -2.636,1.700645 -3.656387,3.06116 l 0.255097,-4.889354 c 0.04252,-0.722773 0.977871,-1.062903 1.445546,-0.467678 z"
     id="path112"
     style="stroke-width:0.425162" /><path
     class="st1"
     d="m 124.7575,49.090573 c -0.17006,-2.550967 -1.02039,-4.804323 -2.46593,-6.334903 -0.5102,-0.552709 -1.06291,-0.97787 -1.61562,-1.317999 -0.34013,-0.21258 -0.68025,-0.382645 -1.10541,-0.552708 -0.55271,-0.212582 -1.19045,-0.382647 -1.8282,-0.425162 -2.72103,-0.297613 -5.69716,0.935354 -8.24812,3.358774 -0.12755,0.08503 -0.21259,0.21258 -0.29762,0.297611 0,-0.08503 0.0426,-0.170063 0.0426,-0.255096 l 0.0426,-0.382645 c 0.42515,-3.27374 -0.17008,-6.547482 -1.61561,-9.225999 -0.97788,-1.74316 -2.29588,-3.231223 -3.82646,-4.209095 -1.14794,-0.76529 -2.42343,-1.232966 -3.74141,-1.445548 -0.467689,-0.08503 -0.935367,-0.08503 -1.403035,-0.08503 h -0.04257 c -4.889348,0.04252 -9.311028,4.039031 -10.756576,9.778708 -0.04252,0.21258 -0.08503,0.42516 -0.12755,0.637742 -0.08503,-0.170065 -0.170064,-0.382645 -0.255097,-0.552712 l -0.04252,-0.04252 c -2.338421,-4.974383 -7.27029,-7.993028 -11.98958,-7.31277 -0.08503,0 -0.212578,0.04252 -0.340128,0.04252 -0.467677,0.08503 -0.892838,0.21258 -1.318,0.34013 -0.807807,0.255095 -1.615612,0.680258 -2.380902,1.19045 -1.87071,1.275483 -3.27374,3.18871 -4.081548,5.48458 -0.97787,2.763548 -0.97787,5.90974 0,8.885867 0.170067,0.510195 0.382645,1.020388 0.55271,1.488066 -0.21258,0.08503 -0.467677,0.12755 -0.637742,0.21258 h -0.08503 c -1.232967,-0.595226 -2.50845,-0.935355 -3.868965,-0.935355 -0.467678,0 -0.892838,0.04252 -1.232968,0.08503 -0.850322,0.12755 -1.658129,0.382645 -2.465935,0.76529 -1.403032,0.680258 -2.678515,1.74316 -3.656385,3.103676 -0.255097,0.382645 -0.510194,0.76529 -0.765292,1.190452 -1.317998,2.380902 -1.828191,5.271997 -1.445546,8.120577 0.04252,0.255096 0.04252,0.425161 0.08503,0.637741 0.170065,0.977872 0.510193,1.913227 0.977871,2.891097 l 1.317999,2.550966 8.630771,20.960447 c 1.913225,3.783938 3.231225,7.907992 3.82645,12.117095 0.212582,1.48806 0.34013,2.97613 0.382647,4.4642 0,0.12753 0,0.2976 0,0.42515 0,0.21259 0,0.38264 0,0.55271 v 1.95575 3.99651 c 0,3.6989 2.763547,6.80258 6.419933,7.18522 5.314514,0.59523 10.799094,0.89284 16.071092,0.89284 4.336642,0 8.545746,-0.21258 12.329676,-0.59523 3.65638,-0.38263 6.41993,-3.44381 6.46245,-7.1427 v -0.0426 c 0,-0.42515 0,-0.89283 0.0426,-1.318 0,-0.97787 0.0426,-1.95574 0.085,-2.93361 0.0426,-1.65812 0.12755,-3.31626 0.2551,-4.97438 v -0.12755 c 0.2551,-3.65638 1.02038,-7.312772 2.29587,-10.79909 0,-0.04253 0.085,-0.212583 0.17007,-0.552708 l 0.21258,-0.680259 c 0.12755,-0.340133 0.21257,-0.722776 0.34013,-1.062901 0.12753,-0.340134 0.21258,-0.722775 0.29761,-1.062909 0.0426,-0.170063 0.085,-0.340128 0.12755,-0.467676 0.0426,-0.170064 0.085,-0.297612 0.12754,-0.467677 0,0 0,0 0,0 6.29238,-20.91793 9.82122,-32.73741 9.9913,-33.417668 0.25508,-0.97787 0.38263,-1.998258 0.46766,-2.933612 0.0426,-0.34013 0.0426,-0.680258 0.0426,-0.935355 0.0426,-0.340128 0.0426,-0.680258 0.0426,-1.020386 z m -0.59522,1.828193 v 0 c -0.0426,0.935354 -0.21259,1.870709 -0.42517,2.84858 -0.17006,0.680257 -3.95399,13.307543 -10.37393,34.69315 -0.17006,0.595225 -0.34013,1.147933 -0.51019,1.743158 l -0.21258,0.680259 c -0.085,0.340133 -0.17007,0.510191 -0.17007,0.552708 -1.31799,3.52884 -2.08329,7.227743 -2.33838,10.969159 v 0.12755 c -0.12755,1.65813 -0.21259,3.31625 -0.25511,5.0169 -0.0426,0.97787 -0.0426,1.95575 -0.085,2.93361 0,0.42517 -0.0426,0.89284 -0.0426,1.318 v 0.0426 c -0.0426,3.40129 -2.59348,6.20735 -5.95225,6.54748 -8.333157,0.89285 -18.664573,0.7653 -28.315733,-0.29761 -3.358772,-0.38265 -5.90974,-3.18871 -5.90974,-6.58999 v -3.99652 -1.95575 c 0,-1.40303 -0.08503,-2.80605 -0.255097,-4.25161 -0.510192,-4.719287 -1.870708,-9.353537 -4.03903,-13.605151 l -8.630712,-20.960491 -1.318,-2.593483 c -0.467678,-0.892839 -0.765289,-1.828194 -0.935353,-2.721032 -0.04252,-0.170065 -0.04252,-0.382645 -0.08503,-0.595225 -0.34013,-2.763548 0.12755,-5.48458 1.360515,-7.78045 0.21258,-0.382645 0.467676,-0.76529 0.722775,-1.105418 0.935353,-1.275485 2.125805,-2.295872 3.443805,-2.891097 0.722773,-0.340128 1.488063,-0.595225 2.29587,-0.722773 0.340128,-0.04252 0.722773,-0.08503 1.147935,-0.08503 1.275483,0 2.508451,0.297614 3.656386,0.892839 l 0.21258,0.08503 0.255097,-0.08503 c 0.21258,-0.08503 0.467677,-0.170065 0.722773,-0.212582 l 0.595227,-0.12755 -0.255097,-0.595225 c -0.212581,-0.467677 -0.425161,-0.97787 -0.595226,-1.488063 -0.935354,-2.84858 -0.935354,-5.867224 0,-8.503224 0.76529,-2.168323 2.08329,-3.954 3.868966,-5.186966 0.722775,-0.467679 1.445549,-0.850322 2.253355,-1.10542 0.382645,-0.12755 0.807807,-0.255097 1.232967,-0.340127 0.12755,0 0.255098,-0.04252 0.382645,-0.04252 4.464193,-0.637741 9.09845,2.210839 11.309288,6.887612 l 0.04252,0.08503 c 0.12755,0.255097 0.21258,0.510194 0.340128,0.76529 v 0.04252 c 0.08503,0.21258 0.297614,0.340128 0.510194,0.340128 0.21258,0 0.382645,-0.170063 0.467676,-0.425161 v -0.04252 c 0.04252,-0.297612 0.12755,-0.552708 0.170065,-0.807807 1.403032,-5.442061 5.569612,-9.268513 10.20387,-9.311028 h 0.04257 c 0.425158,0 0.850316,0.04252 1.318001,0.08503 1.23296,0.21258 2.42341,0.637742 3.48631,1.360515 1.44556,0.935355 2.72104,2.338387 3.61388,3.996515 1.40303,2.593484 1.95574,5.739677 1.53058,8.885869 l -0.0426,0.34013 c -0.0426,0.170063 -0.0426,0.297611 -0.085,0.467676 v 0.04252 c -0.0426,0.212582 0.0426,0.467678 0.2551,0.55271 0.21259,0.08503 0.42516,0.04252 0.59523,-0.12755 l 0.0426,-0.04252 c 0.12755,-0.170065 0.29761,-0.297613 0.42516,-0.425161 2.3809,-2.29587 5.22948,-3.486322 7.78045,-3.231225 0.59522,0.08503 1.14793,0.21258 1.65812,0.382645 0.38266,0.170065 0.72278,0.340128 1.0204,0.510193 0.51019,0.297613 1.02039,0.722773 1.48805,1.232968 1.31801,1.445547 2.12582,3.571354 2.29588,5.994772 0.0426,0.340128 0.0426,0.680258 0.0426,0.892838 0.0426,0.255099 0.0426,0.595225 0.0426,0.935355 z"
     id="path6"
     style="display:inline;stroke-width:0.425162" /></g><g
   inkscape:label="F.Cu"
   inkscape:groupmode="layer"
   id="g367"
   transform="translate(-49.211057,-21.2)"
   style="display:inline" /><g
   inkscape:label="F.Mask"
   inkscape:groupmode="layer"
   id="g369"
   transform="translate(-49.211057,-21.2)"
   style="display:inline"><path
     class="st1"
     d="m 109.87685,107.50772 c -0.0426,0.97787 -0.0426,1.95574 -0.085,2.93361 0,0.42516 -0.0426,0.89284 -0.0426,1.318 v 0.0426 c -0.0426,3.4013 -2.59348,6.20737 -5.95225,6.54749 -8.333157,0.89284 -18.664573,0.76529 -28.315733,-0.29762 -3.358772,-0.38264 -5.90974,-3.1887 -5.90974,-6.58999 v -3.99652 h 40.305283 z"
     id="path8"
     style="stroke-width:0.425162" /></g><g
   inkscape:label="F.SilkS"
   inkscape:groupmode="layer"
   id="g371"
   transform="translate(-49.211057,-21.2)"
   style="display:inline"><path
     class="st2"
     d="m 113.36318,88.460496 c -0.17006,0.595225 -0.34013,1.147933 -0.51019,1.743158 l -0.21258,0.680259 c -0.085,0.340133 -0.17007,0.510191 -0.17007,0.552708 -1.31799,3.52884 -2.08329,7.227743 -2.33838,10.969159 v 0.12755 c -0.12755,1.65813 -0.21259,3.31625 -0.25511,5.0169 H 69.614097 v -1.95574 c 0,-1.40303 -0.08503,-2.80607 -0.255095,-4.25161 1.445546,-3.273741 2.380901,-5.484587 3.868965,-8.758319 2.933613,2.59347 0.467678,8.163099 5.016901,10.161349 1.445549,-3.316256 2.42342,-5.569614 3.911484,-8.885866 1.275483,3.23122 0.97787,7.057666 2.253355,10.288886 3.741418,-2.33838 4.549223,-7.312761 4.889353,-11.139211 1.275483,3.23123 0.297612,5.442059 1.615612,8.673281 4.209091,-3.443797 3.911483,-8.885864 4.719291,-13.860247 2.423419,3.698898 2.763545,9.18348 5.186957,12.882387 2.93362,-6.675037 4.7193,-13.860259 9.90626,-19.514902 -1.74315,3.953998 0.085,9.43858 -1.61562,13.392573 0,-0.04257 2.67853,-4.209093 4.25162,-6.122318 z"
     id="path10"
     style="stroke-width:0.425162" /><g
     id="g98"
     transform="matrix(0.42516116,0,0,0.42516116,28.288432,12.186583)">
		<g
   id="g92">
			<path
   class="st3"
   d="m 168.6,86.3 c -0.3,-0.2 0,-0.3 0,-0.5 0,-0.5 -0.3,-1.2 -0.1,-1.7 -0.1,-0.4 0,-0.7 0,-1.2 0,-0.2 -0.1,-0.4 -0.1,-0.6 0,-0.9 0,-1.7 0.1,-2.6 0,-0.1 0,-0.2 0,-0.3 0,-0.2 0,-0.5 0.1,-0.7 0.1,-0.2 0.6,-0.3 1.1,-0.3 0.6,0.2 0.4,0.6 0.4,1 0,0.7 -0.1,1.5 -0.2,2.2 -0.1,0.5 -0.1,1 -0.2,1.4 -0.1,0.5 -0.2,0.9 -0.3,1.4 -0.1,0.3 -0.3,0.6 -0.4,0.9 -0.1,0.4 -0.2,0.7 -0.4,1 z"
   id="path90" />
		</g>
		<g
   id="g96">
			<path
   class="st3"
   d="m 163.5,88.5 c -0.2,-0.2 0,-0.3 0,-0.4 0.1,-0.4 -0.2,-1 0.1,-1.4 -0.1,-0.4 0,-0.6 0,-1 0,-0.2 -0.1,-0.4 -0.1,-0.5 -0.1,-0.7 -0.1,-1.4 -0.2,-2.1 0,-0.1 0,-0.1 0,-0.2 0,-0.2 -0.1,-0.4 0,-0.6 0,-0.2 0.5,-0.4 1,-0.5 0.6,0.1 0.6,0.4 0.7,0.8 0.1,0.6 0.2,1.4 0.1,2 0,0.4 0,0.9 -0.1,1.3 -0.1,0.4 -0.2,0.8 -0.3,1.2 -0.1,0.3 -0.4,0.5 -0.5,0.8 -0.2,0.1 -0.4,0.3 -0.7,0.6 z"
   id="path94" />
		</g>
	</g><g
     id="g108"
     transform="matrix(0.42516116,0,0,0.42516116,28.288432,12.186583)">
		<g
   id="g102">
			<path
   class="st3"
   d="m 201.8,102 c -0.1,-0.3 0.2,-0.3 0.3,-0.4 0.4,-0.3 0.5,-1 0.9,-1.3 0.1,-0.4 0.4,-0.6 0.6,-0.9 0.1,-0.2 0.1,-0.4 0.2,-0.6 0.3,-0.7 0.6,-1.4 0.8,-2.1 0,-0.1 0,-0.2 0.1,-0.2 0.1,-0.2 0.1,-0.4 0.2,-0.6 0.1,-0.2 0.6,-0.2 1.2,-0.1 0.5,0.3 0.4,0.7 0.3,1.1 -0.1,0.7 -0.5,1.5 -0.8,2.1 -0.2,0.4 -0.5,0.9 -0.8,1.2 -0.3,0.4 -0.6,0.7 -1,1 -0.3,0.2 -0.6,0.3 -0.9,0.4 -0.4,0.2 -0.8,0.3 -1.1,0.4 z"
   id="path100" />
		</g>
		<g
   id="g106">
			<path
   class="st3"
   d="m 196.1,102 c -0.2,-0.3 0.1,-0.3 0.2,-0.5 0.3,-0.4 0.3,-1.2 0.7,-1.5 0.1,-0.4 0.3,-0.6 0.6,-1.1 0.1,-0.2 0.1,-0.4 0.2,-0.6 0.4,-0.8 0.8,-1.5 1.3,-2.2 0,-0.1 0.1,-0.2 0.2,-0.2 0.1,-0.2 0.2,-0.4 0.4,-0.6 0.2,-0.1 0.7,0 1.1,0.3 0.4,0.5 0.1,0.8 -0.1,1.1 -0.3,0.6 -0.8,1.3 -1.2,1.8 -0.3,0.4 -0.5,0.8 -0.9,1.2 -0.3,0.4 -0.6,0.7 -0.9,1.1 -0.2,0.2 -0.6,0.4 -0.8,0.6 -0.2,0.2 -0.5,0.4 -0.8,0.6 z"
   id="path104" />
		</g>
	</g><g
     id="g88"
     transform="matrix(0.42516116,0,0,0.42516116,28.288432,12.186583)">
		<g
   id="g82">
			<path
   class="st3"
   d="m 124.9,90.4 c -0.3,-0.2 0,-0.3 0,-0.5 0,-0.5 -0.4,-1.1 -0.2,-1.5 -0.2,-0.3 -0.1,-0.6 -0.3,-1.1 0,-0.2 -0.2,-0.3 -0.3,-0.5 -0.3,-0.7 -0.6,-1.4 -0.9,-2 0,-0.1 -0.1,-0.1 -0.1,-0.2 -0.1,-0.2 -0.3,-0.4 -0.3,-0.6 0,-0.2 0.3,-0.6 0.7,-0.9 0.6,-0.2 0.7,0.2 1,0.5 0.4,0.5 0.7,1.4 0.9,2 0.1,0.5 0.3,1 0.3,1.4 0,0.5 0.1,1 0,1.4 -0.1,0.3 -0.2,0.7 -0.3,1 -0.2,0.4 -0.3,0.7 -0.5,1 z"
   id="path80" />
		</g>
		<g
   id="g86">
			<path
   class="st3"
   d="m 120.8,94.4 c -0.3,-0.1 -0.1,-0.3 -0.2,-0.5 -0.1,-0.5 -0.6,-1 -0.6,-1.6 -0.3,-0.4 -0.2,-0.7 -0.4,-1.2 -0.1,-0.2 -0.2,-0.4 -0.3,-0.6 -0.3,-0.8 -0.5,-1.6 -0.7,-2.5 0,-0.1 0,-0.2 0,-0.3 0,-0.2 -0.1,-0.5 -0.1,-0.7 0,-0.2 0.5,-0.5 1,-0.6 0.6,0.1 0.6,0.5 0.7,0.9 0.2,0.6 0.3,1.5 0.4,2.1 0.1,0.5 0.2,1 0.2,1.4 0,0.5 0.1,0.9 0.1,1.4 0,0.3 -0.1,0.7 -0.2,1 0.3,0.5 0.2,0.8 0.1,1.2 z"
   id="path84" />
		</g>
	</g><g
     id="g78"
     transform="matrix(0.42516116,0,0,0.42516116,28.288432,12.186583)">
		<g
   id="g72">
			<path
   class="st3"
   d="m 84.8,118.8 c -0.2,0 -0.1,-0.2 -0.2,-0.3 -0.1,-0.3 -0.5,-0.7 -0.6,-1.1 -0.2,-0.2 -0.2,-0.5 -0.4,-0.8 -0.1,-0.1 -0.2,-0.3 -0.3,-0.4 -0.3,-0.6 -0.5,-1.2 -0.7,-1.8 0,-0.1 0,-0.1 -0.1,-0.2 0,-0.2 -0.2,-0.3 -0.2,-0.5 0,-0.2 0.3,-0.4 0.7,-0.5 0.5,0 0.5,0.3 0.6,0.6 0.2,0.4 0.4,1.1 0.5,1.5 0.1,0.3 0.2,0.7 0.3,1 0.1,0.3 0.2,0.7 0.2,1 0,0.2 0,0.5 0,0.8 0.2,0.2 0.2,0.5 0.2,0.7 z"
   id="path70" />
		</g>
		<g
   id="g76">
			<path
   class="st3"
   d="m 82,121.8 c -0.2,-0.1 -0.1,-0.2 -0.1,-0.3 -0.1,-0.3 -0.4,-0.6 -0.4,-1 -0.2,-0.2 -0.2,-0.4 -0.3,-0.7 -0.1,-0.1 -0.2,-0.2 -0.3,-0.3 -0.3,-0.5 -0.5,-0.9 -0.8,-1.3 0,0 -0.1,-0.1 -0.1,-0.1 -0.1,-0.1 -0.2,-0.2 -0.2,-0.4 0,-0.1 0.2,-0.4 0.5,-0.7 0.4,-0.1 0.5,0.1 0.7,0.3 0.3,0.3 0.5,0.9 0.7,1.3 0.1,0.3 0.3,0.6 0.3,0.9 0.1,0.3 0.1,0.6 0.2,0.9 0,0.2 -0.1,0.5 -0.1,0.7 0.1,0.3 0,0.5 -0.1,0.7 z"
   id="path74" />
		</g>
	</g><g
     id="g38"
     transform="matrix(0.42516116,0,0,0.42516116,28.288432,12.186583)">
		<g
   id="g28">
			<path
   class="st3"
   d="m 113.5,175.7 c -0.5,-0.1 -0.7,-0.6 -1,-1 -1,-1.1 -2.3,-2.2 -3.1,-3.5 -0.8,-0.8 -1.3,-1.6 -2.1,-2.7 -0.4,-0.5 -0.8,-0.9 -1.1,-1.4 -1.4,-2 -2.6,-4.1 -3.8,-6.3 -0.1,-0.2 -0.2,-0.5 -0.4,-0.7 -0.3,-0.6 -0.7,-1.3 -0.9,-1.9 -0.2,-0.7 0,-1.3 0.5,-1.6 0.7,0.2 1.1,1.3 1.6,2.2 0.8,1.6 2,3.8 2.9,5.4 0.7,1.2 1.4,2.3 2.1,3.4 0.7,1.1 1.5,2.2 2.2,3.3 0.5,0.8 0.9,1.6 1.4,2.4 0.6,0.8 1.2,1.6 1.7,2.4 z"
   id="path26" />
		</g>
		<g
   id="g32">
			<path
   class="st3"
   d="m 118.2,174.2 c -0.4,-0.1 -0.3,-0.4 -0.5,-0.6 -0.5,-0.7 -1.3,-1.3 -1.6,-2.2 -0.5,-0.4 -0.7,-1 -1.2,-1.6 -0.2,-0.3 -0.5,-0.5 -0.7,-0.8 -0.8,-1.2 -1.6,-2.3 -2.4,-3.5 -0.1,-0.1 -0.2,-0.3 -0.2,-0.4 -0.2,-0.3 -0.5,-0.7 -0.6,-1 -0.1,-0.4 0.1,-0.9 0.6,-1.2 0.7,-0.1 0.9,0.5 1.3,1 0.6,0.9 1.4,2.1 1.9,3 0.4,0.7 0.8,1.3 1.2,2 0.4,0.7 0.8,1.3 1.1,2 0.2,0.5 0.3,1 0.6,1.5 0.1,0.7 0.3,1.2 0.5,1.8 z"
   id="path30" />
		</g>
		<g
   id="g36">
			<path
   class="st3"
   d="m 127.1,180 c -0.4,-0.1 -0.4,-0.5 -0.6,-0.8 -0.6,-0.8 -1.5,-1.6 -2,-2.6 -0.6,-0.6 -0.8,-1.2 -1.3,-2 -0.2,-0.4 -0.6,-0.6 -0.8,-1 -0.9,-1.5 -1.8,-2.9 -2.6,-4.4 -0.1,-0.2 -0.2,-0.3 -0.2,-0.5 -0.2,-0.4 -0.5,-0.9 -0.6,-1.3 -0.1,-0.5 0.1,-1 0.6,-1.2 0.7,0 0.9,0.8 1.3,1.5 0.6,1.1 1.4,2.7 2,3.8 0.4,0.8 0.9,1.7 1.3,2.5 0.4,0.8 0.9,1.6 1.3,2.4 0.3,0.6 0.5,1.2 0.7,1.8 0.4,0.6 0.7,1.2 0.9,1.8 z"
   id="path34" />
		</g>
	</g><g
     id="g24"
     transform="matrix(0.42516116,0,0,0.42516116,28.288432,12.186583)">
		<g
   id="g14">
			<path
   class="st3"
   d="m 170.5,169.8 c -0.3,-0.1 -0.2,-0.5 -0.3,-0.7 -0.3,-0.8 -1,-1.6 -1.1,-2.4 -0.4,-0.5 -0.5,-1.1 -0.8,-1.8 -0.1,-0.3 -0.4,-0.6 -0.5,-0.9 -0.6,-1.3 -1,-2.5 -1.6,-3.9 -0.1,-0.1 -0.1,-0.3 -0.1,-0.4 -0.1,-0.4 -0.3,-0.8 -0.4,-1.1 -0.1,-0.4 0.3,-0.8 0.8,-1 0.7,0.1 0.8,0.7 1,1.3 0.4,1 0.9,2.4 1.2,3.3 0.2,0.7 0.5,1.5 0.7,2.2 0.2,0.8 0.5,1.5 0.6,2.2 0.1,0.5 0.1,1.1 0.2,1.6 0.2,0.5 0.3,1 0.3,1.6 z"
   id="path12" />
		</g>
		<g
   id="g18">
			<path
   class="st3"
   d="m 174,167.3 c -0.3,0 -0.2,-0.2 -0.3,-0.3 -0.2,-0.4 -0.8,-0.7 -0.8,-1.2 -0.3,-0.2 -0.3,-0.5 -0.6,-0.9 -0.1,-0.2 -0.3,-0.3 -0.4,-0.4 -0.4,-0.6 -0.8,-1.2 -1.1,-1.9 0,-0.1 -0.1,-0.1 -0.1,-0.2 -0.1,-0.2 -0.2,-0.4 -0.2,-0.6 0,-0.2 0.4,-0.5 0.9,-0.8 0.6,-0.1 0.7,0.2 0.9,0.5 0.3,0.5 0.6,1.2 0.8,1.6 0.2,0.4 0.4,0.7 0.5,1.1 0.1,0.4 0.3,0.7 0.4,1.1 0.1,0.3 0,0.6 0.1,0.9 -0.1,0.5 -0.1,0.8 -0.1,1.1 z"
   id="path16" />
		</g>
		<g
   id="g22">
			<path
   class="st3"
   d="m 178.9,165.5 c -0.3,-0.1 -0.2,-0.3 -0.2,-0.4 -0.2,-0.5 -0.7,-1 -0.7,-1.5 -0.3,-0.3 -0.3,-0.7 -0.4,-1.1 -0.1,-0.2 -0.3,-0.4 -0.3,-0.5 -0.3,-0.8 -0.6,-1.6 -0.9,-2.4 0,-0.1 0,-0.2 -0.1,-0.3 0,-0.2 -0.2,-0.5 -0.2,-0.7 0,-0.2 0.4,-0.5 1,-0.7 0.6,0 0.6,0.4 0.8,0.8 0.2,0.6 0.5,1.5 0.6,2.1 0.1,0.5 0.3,0.9 0.3,1.4 0.1,0.5 0.2,0.9 0.2,1.4 0,0.3 -0.1,0.7 -0.1,1 0.1,0.2 0.1,0.5 0,0.9 z"
   id="path20" />
		</g>
	</g><g
     id="g68"
     transform="matrix(0.42516116,0,0,0.42516116,28.288432,12.186583)">
		<g
   id="g58">
			<path
   class="st3"
   d="m 166.8,127 c -0.1,-0.3 0.2,-0.3 0.3,-0.4 0.4,-0.3 0.5,-1 0.9,-1.3 0.1,-0.4 0.4,-0.6 0.6,-0.9 0.1,-0.2 0.1,-0.4 0.2,-0.6 0.3,-0.7 0.6,-1.4 0.8,-2.1 0,-0.1 0,-0.2 0.1,-0.2 0.1,-0.2 0.1,-0.4 0.2,-0.6 0.1,-0.2 0.6,-0.2 1.2,-0.1 0.5,0.3 0.4,0.7 0.3,1.1 -0.1,0.7 -0.5,1.5 -0.8,2.1 -0.2,0.4 -0.5,0.9 -0.8,1.2 -0.3,0.4 -0.6,0.7 -1,1 -0.3,0.2 -0.6,0.3 -0.9,0.4 -0.4,0.2 -0.8,0.3 -1.1,0.4 z"
   id="path56" />
		</g>
		<g
   id="g62">
			<path
   class="st3"
   d="m 161.1,127 c -0.2,-0.3 0.1,-0.3 0.2,-0.5 0.3,-0.4 0.3,-1.2 0.7,-1.5 0.1,-0.4 0.3,-0.6 0.6,-1.1 0.1,-0.2 0.1,-0.4 0.2,-0.6 0.4,-0.8 0.8,-1.5 1.3,-2.2 0,-0.1 0.1,-0.2 0.2,-0.2 0.1,-0.2 0.2,-0.4 0.4,-0.6 0.2,-0.1 0.7,0 1.1,0.3 0.4,0.5 0.1,0.8 -0.1,1.1 -0.3,0.6 -0.8,1.3 -1.2,1.8 -0.3,0.4 -0.5,0.8 -0.9,1.2 -0.3,0.4 -0.6,0.7 -0.9,1.1 -0.2,0.2 -0.6,0.4 -0.8,0.6 -0.2,0.2 -0.5,0.4 -0.8,0.6 z"
   id="path60" />
		</g>
		<g
   id="g66">
			<path
   class="st3"
   d="m 155.6,126.4 c -0.1,-0.3 0.1,-0.3 0.2,-0.4 0.3,-0.3 0.3,-1 0.7,-1.2 0.1,-0.4 0.3,-0.5 0.5,-0.9 0.1,-0.2 0.1,-0.4 0.1,-0.5 0.3,-0.7 0.6,-1.3 0.8,-1.9 0,-0.1 0.1,-0.1 0.1,-0.2 0.1,-0.2 0.1,-0.4 0.2,-0.5 0.1,-0.1 0.6,-0.1 1.2,0.1 0.5,0.3 0.3,0.7 0.2,1 -0.1,0.6 -0.5,1.3 -0.8,1.8 -0.2,0.4 -0.4,0.8 -0.7,1.1 -0.3,0.3 -0.5,0.7 -0.9,0.9 -0.2,0.2 -0.6,0.3 -0.8,0.4 -0.2,0.1 -0.5,0.2 -0.8,0.3 z"
   id="path64" />
		</g>
	</g><g
     id="g54"
     transform="matrix(0.42516116,0,0,0.42516116,28.288432,12.186583)">
		<g
   id="g44">
			<path
   class="st3"
   d="m 128.8,141.2 c -0.4,0 -0.4,-0.3 -0.5,-0.5 -0.5,-0.6 -1.3,-1.1 -1.6,-1.9 -0.5,-0.4 -0.7,-0.9 -1.1,-1.5 -0.2,-0.3 -0.5,-0.5 -0.6,-0.7 -0.7,-1.1 -1.3,-2.2 -1.9,-3.4 -0.1,-0.1 -0.1,-0.3 -0.2,-0.4 -0.1,-0.3 -0.3,-0.7 -0.4,-1 -0.1,-0.4 0.3,-0.8 0.8,-1 0.7,0 0.8,0.6 1,1.1 0.5,1 1,2.1 1.4,2.9 0.3,0.6 0.7,1.2 1,1.9 0.3,0.6 0.7,1.2 1,1.8 0.2,0.4 0.3,0.9 0.5,1.4 0.2,0.4 0.4,0.8 0.6,1.3 z"
   id="path42" />
		</g>
		<g
   id="g48">
			<path
   class="st3"
   d="m 120.4,134.8 c -0.3,0 -0.3,-0.3 -0.4,-0.5 -0.3,-0.5 -1,-1 -1.2,-1.6 -0.4,-0.3 -0.5,-0.7 -0.8,-1.2 -0.1,-0.2 -0.4,-0.4 -0.5,-0.6 -0.6,-0.9 -1.1,-1.7 -1.6,-2.6 -0.1,-0.1 -0.1,-0.2 -0.2,-0.3 -0.1,-0.3 -0.3,-0.5 -0.4,-0.8 -0.1,-0.3 0.3,-0.7 0.7,-1 0.6,-0.1 0.8,0.4 1,0.8 0.4,0.7 0.9,1.6 1.3,2.3 0.3,0.5 0.6,1 0.8,1.5 0.2,0.5 0.5,1 0.7,1.6 0.1,0.4 0.1,0.8 0.3,1.2 0.2,0.4 0.3,0.8 0.3,1.2 z"
   id="path46" />
		</g>
		<g
   id="g52">
			<path
   class="st3"
   d="m 116.1,133 c -0.3,0.1 -0.2,-0.2 -0.3,-0.3 -0.3,-0.4 -1,-0.6 -1.1,-1.1 -0.4,-0.2 -0.5,-0.5 -0.8,-0.8 -0.1,-0.1 -0.4,-0.2 -0.5,-0.4 -0.6,-0.6 -1.1,-1.2 -1.6,-1.8 -0.1,-0.1 -0.1,-0.1 -0.2,-0.2 -0.1,-0.2 -0.3,-0.4 -0.4,-0.6 -0.1,-0.2 0.2,-0.6 0.7,-1 0.6,-0.2 0.7,0.1 1,0.4 0.4,0.4 0.9,1.1 1.2,1.6 0.3,0.4 0.6,0.7 0.8,1.1 0.2,0.4 0.5,0.7 0.7,1.1 0.1,0.3 0.2,0.6 0.3,0.9 0,0.4 0.1,0.7 0.2,1.1 z"
   id="path50" />
		</g>
	</g><g
     id="Capa_2"
     transform="matrix(0.42516118,0,0,0.42516118,28.288414,12.186583)"
     style="display:inline">
	<path
   class="st0"
   d="M 236.8,86.1 C 236.3,78.7 234,72.1 230,67 l -2.9,-8.7 c -1.6,-4.9 -6.2,-8.2 -11.3,-8.2 -4,0 -7.8,2 -10,5.4 l -0.8,1.2 c -1.8,0.2 -3.6,0.6 -5.4,1.2 -0.9,-3.8 -2.3,-7.4 -4.1,-10.8 -2.6,-4.8 -6.1,-8.9 -10.2,-12 l -4.4,-7.5 c -2.1,-3.6 -6.1,-5.9 -10.3,-5.9 -4.3,0 -8.2,2.3 -10.4,6 l -0.8,1.4 C 151,30.9 143.5,36 138,43.4 131.9,38 124.3,34.6 116.4,34.1 l -1.3,-1.9 c -2.2,-3.4 -5.9,-5.4 -10,-5.4 -5.8,0 -10.8,4.1 -11.8,9.9 l -1,5.9 c -4.4,4 -7.8,9 -9.8,14.9 -1.8,5.1 -2.5,10.7 -2.2,16.2 -0.8,0.1 -1.6,0.1 -2.4,0.3 -0.3,0 -0.5,0.1 -0.8,0.2 l -0.3,-0.4 c -2.3,-2.7 -5.6,-4.3 -9.1,-4.3 -6.4,0 -11.6,5 -11.9,11.3 l -0.5,8.9 c -0.2,0.4 -0.5,0.7 -0.7,1.1 -4.1,7.4 -5.7,16.3 -4.5,25.1 0.1,0.7 0.2,1.3 0.3,2 l 0.2,1 v 0.1 c 0.6,2.9 1.6,5.7 3,8.5 l 2.9,5.7 20.3,49.3 0.2,0.4 c 5.8,11.4 8.9,24.2 8.9,36.9 v 14 c 0,13.7 10.3,25.2 23.9,26.7 12.6,1.4 26.1,2.1 39,2.1 10.7,0 20.8,-0.5 30,-1.5 13.6,-1.4 23.9,-12.9 24.1,-26.5 0.1,-7.1 0.3,-14.3 0.8,-21.3 v -0.7 c 0.5,-7.5 2.1,-15 4.7,-22.1 l 0.2,-0.5 0.1,-0.3 c 5.9,-19.6 24.7,-82.2 26.6,-88.9 l 0.1,-0.2 0.1,-0.3 c 0.7,-2.9 1.1,-5.8 1.3,-8.6 0.1,-1.8 0.1,-3.7 0,-5.6 z"
   id="path4" />
	
	
	
	
	
	
	
	
	
	
	
	
	
	
	
	
</g></g><g
   inkscape:label="Dwgs.User"
   inkscape:groupmode="layer"
   id="g373"
   transform="translate(-49.211057,-21.2)" /><g
   inkscape:label="Drill"
   inkscape:groupmode="layer"
   id="g375"
   transform="translate(-49.2111, -21.2)" /></svg>
